# xmcd CD database file
#
# Track frame offsets:
#	150
#	22384
#	38432
#	53135
#	69016
#	86586
#	103032
#	119786
#	135023
#	153579
#	170460
#	183689
#	206878
#	332550
#
# Disc length: 4440 seconds
#
# Revision: 0
# Processed by: cddbd v1.5.1PL0 Copyright (c) Steve Scherf et al.
# Submitted via: CDex 1.51
#
DISCID=c111560e
DTITLE=clementine - SOLEIL
DYEAR=2004
DGENRE=Bossa Nova
TTITLE0=Season In The Sun
TTITLE1=Sunny Side Of The Street
TTITLE2=La Mer
TTITLE3=L'ete 42
TTITLE4=Ah Si J'avais!
TTITLE5=La Bas
TTITLE6=Besame Mucho
TTITLE7=On Me Dit Que
TTITLE8=Garasugoshi Ni Kietanatsu
TTITLE9=Vivo
TTITLE10=6 P.M.(J-WAVE MIX)
TTITLE11=Les Champs-Elysees(Sweet Mix)
TTITLE12=CCCD
TTITLE13=CCCD
EXTD=YEAR: 2004
EXTT0=
EXTT1=
EXTT2=
EXTT3=
EXTT4=
EXTT5=
EXTT6=
EXTT7=
EXTT8=
EXTT9=
EXTT10=
EXTT11=
EXTT12=
EXTT13=
PLAYORDER=
